<?xml version="1.0" encoding="UTF-8"?>
<svg id="Calque_1" data-name="Calque 1" xmlns="http://www.w3.org/2000/svg" xmlns:xlink="http://www.w3.org/1999/xlink" viewBox="0 0 409.45 125.35">
  <defs>
    <style>
      .cls-1 {
        fill: url(#Dégradé_sans_nom_2-4);
      }

      .cls-1, .cls-2, .cls-3, .cls-4, .cls-5, .cls-6, .cls-7, .cls-8, .cls-9, .cls-10 {
        stroke-width: 0px;
      }

      .cls-2 {
        fill: url(#Dégradé_sans_nom_2-5);
      }

      .cls-3 {
        fill: url(#Dégradé_sans_nom_2-8);
      }

      .cls-4 {
        fill: url(#Dégradé_sans_nom_2-3);
      }

      .cls-5 {
        fill: none;
      }

      .cls-6 {
        fill: url(#Dégradé_sans_nom_2-7);
      }

      .cls-7 {
        fill: url(#Dégradé_sans_nom_2-2);
      }

      .cls-8 {
        fill: url(#Dégradé_sans_nom_2-6);
      }

      .cls-9 {
        fill: url(#Dégradé_sans_nom_2);
      }

      .cls-10 {
        fill: #ff6e60;
      }
    </style>
    <linearGradient id="Dégradé_sans_nom_2" data-name="Dégradé sans nom 2" x1="63.27" y1="91.4" x2="67.88" y2="35.46" gradientUnits="userSpaceOnUse">
      <stop offset="0" stop-color="#ff6e60"/>
      <stop offset=".92" stop-color="#ffad60"/>
    </linearGradient>
    <linearGradient id="Dégradé_sans_nom_2-2" data-name="Dégradé sans nom 2" x1="109.87" y1="95.34" x2="114.54" y2="38.69" xlink:href="#Dégradé_sans_nom_2"/>
    <linearGradient id="Dégradé_sans_nom_2-3" data-name="Dégradé sans nom 2" x1="145.39" y1="98.32" x2="150.02" y2="42.14" xlink:href="#Dégradé_sans_nom_2"/>
    <linearGradient id="Dégradé_sans_nom_2-4" data-name="Dégradé sans nom 2" x1="235.19" y1="105.72" x2="239.8" y2="49.81" xlink:href="#Dégradé_sans_nom_2"/>
    <linearGradient id="Dégradé_sans_nom_2-5" data-name="Dégradé sans nom 2" x1="255.33" y1="107.61" x2="260" y2="50.97" xlink:href="#Dégradé_sans_nom_2"/>
    <linearGradient id="Dégradé_sans_nom_2-6" data-name="Dégradé sans nom 2" x1="282.5" y1="109.91" x2="287.17" y2="53.22" xlink:href="#Dégradé_sans_nom_2"/>
    <linearGradient id="Dégradé_sans_nom_2-7" data-name="Dégradé sans nom 2" x1="317.76" y1="112.75" x2="322.39" y2="56.56" xlink:href="#Dégradé_sans_nom_2"/>
    <linearGradient id="Dégradé_sans_nom_2-8" data-name="Dégradé sans nom 2" x1="346.75" y1="115.2" x2="351.39" y2="58.89" xlink:href="#Dégradé_sans_nom_2"/>
  </defs>
  <path class="cls-5" d="M115.61,70.97c7.96-8.69,8.02-16.43-4.87-4.07-2.57,2.44-5.01,5.43-6.83,8.28,1.22,1.76,4.37,3.8,11.7-4.21Z"/>
  <path class="cls-5" d="M267.26,60.11c-3.02,0-7.96,4.21-15.53,14.53-6.67,9.23-8.07,15.62-4.33,15.62,2.73,0,7.54-4.21,14.63-14.39,7.65-11.14,7.39-15.75,5.24-15.75Z"/>
  <path class="cls-5" d="M341.07,70.97c7.96-8.69,8.02-16.43-4.87-4.07-2.57,2.44-5.01,5.43-6.83,8.28,1.22,1.76,4.37,3.8,11.7-4.21Z"/>
  <g>
    <path class="cls-9" d="M20.02,102.98c-4.44,0-7.79-1.68-9.42-4.73-1.77-3.3-1.32-7.99,1.12-11.67,3.3-5.24,8.95-7.1,12.78-7.1,2.64,0,4.91.82,6.21,2.26.96,1.06,1.39,2.42,1.25,3.94-.02.18-.12.33-.28.4-.07.03-.14.05-.21.05-.1,0-.19-.03-.28-.08-2.11-1.42-4.32-2.16-6.38-2.16-2.62,0-4.69,1.23-5.84,3.47-.45.83-.44,1.71.02,2.47.75,1.25,2.5,1.96,4.81,1.96h.18c6.65,0,15.23-8.07,23.61-17.06-5.36.58-11.25,1.4-15.91,3.22-.06.02-.12.03-.18.03-.16,0-.32-.08-.42-.22-.13-.19-.11-.45.05-.62,5.38-5.67,13.75-7.28,21.89-8.41l7.84-9.09c20.54-23.59,28.14-29.35,38.7-29.35,1.53,0,3.19.13,5.09.39.24.03.42.24.43.48,0,.24-.16.46-.4.51-6.66,1.39-15.27,6.18-32.96,31.57l-1.96,2.79c9.13-1.84,20.63-5.52,30.99-16.59,6.1-6.52,8.8-13.6,6.87-18.05-1.44-3.33-5.37-5.09-11.36-5.09-1.82,0-3.84.16-6.02.48-13.56,2.14-25.4,8.01-34.25,16.97-5.39,5.4-8.09,10.79-7.05,14.07.45,1.42,1.57,2.29,3.34,2.6.19.03.35.18.4.37.05.19-.02.39-.17.51-3.12,2.56-6.46,3.97-9.39,3.97s-5.36-1.51-6.29-4.03c-1.88-5.09,1.93-12.36,10.2-19.45,11.51-9.96,31.82-20.08,51.24-20.22,11.26,0,19.04,3.41,21.89,9.59,2.69,5.82.62,13.42-5.7,20.84-13.6,16.12-32.9,19.34-49.97,21.06-15.85,20.12-30.4,29.9-44.49,29.9Z"/>
    <path class="cls-10" d="M98.29,22.09c23.44,0,28.4,14.8,15.81,29.6-13.29,15.75-32.24,19.15-49.85,20.91-14.94,19.01-29.71,29.88-44.23,29.88-10.64,0-11.94-9.51-7.89-15.62,2.96-4.71,8.12-6.88,12.36-6.88,4.08,0,7.31,2,6.97,5.65-2.23-1.49-4.55-2.25-6.66-2.25-2.68,0-5,1.23-6.28,3.74-1.24,2.31.53,5.16,5.28,5.16.06,0,.12,0,.18,0,6.69,0,15.18-7.7,24.89-18.2-6.52.68-12.51,1.49-17.37,3.39,5.15-5.43,12.95-7.06,21.79-8.28l7.97-9.23c19.94-22.9,27.73-29.18,38.32-29.18,1.59,0,3.25.14,5.02.39-7.8,1.63-16.9,8.28-33.27,31.78l-2.67,3.8c10.79-2.04,22.32-6.11,32.48-16.97,10.09-10.78,11.76-23.98-4.86-23.98-1.81,0-3.84.16-6.09.49-14.61,2.31-26.22,8.69-34.53,17.11-8.68,8.69-9.6,16.43-3.44,17.52-3.26,2.67-6.45,3.85-9.07,3.85-7.63,0-10.39-10.05,4.24-22.59,12.24-10.59,32.47-19.96,50.91-20.1M98.29,21.09h0c-19.55.14-39.98,10.32-51.56,20.34-8.43,7.23-12.3,14.71-10.34,20,1.01,2.73,3.53,4.35,6.76,4.35,3.05,0,6.49-1.45,9.71-4.08.3-.25.43-.65.33-1.03-.1-.38-.41-.66-.79-.73-1.57-.28-2.56-1.04-2.95-2.26-.73-2.32.64-7.27,6.92-13.57,8.77-8.88,20.52-14.7,33.98-16.83,2.14-.32,4.14-.48,5.94-.48,5.77,0,9.54,1.65,10.9,4.79,1.85,4.27-.81,11.14-6.77,17.51-9.8,10.47-20.64,14.27-29.49,16.18l1.23-1.75c17.6-25.25,26.09-30,32.66-31.37.48-.1.81-.53.79-1.01s-.38-.89-.86-.96c-1.92-.27-3.6-.4-5.16-.4-10.75,0-18.42,5.79-39.08,29.52l-7.72,8.95c-8.17,1.14-16.55,2.79-22,8.53-.32.34-.37.86-.1,1.25.19.28.5.44.83.44.12,0,.25-.02.36-.07,3.92-1.53,8.52-2.35,14.43-3.04-7.7,8.16-16.1,15.91-22.32,15.91h-.16c-2.12,0-3.76-.64-4.4-1.72-.36-.61-.37-1.31-.01-1.97,1.06-2.08,2.98-3.22,5.4-3.22,1.96,0,4.07.72,6.1,2.08.17.11.36.17.56.17.15,0,.29-.03.43-.1.32-.15.53-.46.57-.81.16-1.67-.32-3.17-1.38-4.33-1.42-1.56-3.76-2.42-6.59-2.42-3.96,0-9.8,1.92-13.21,7.34-2.57,3.87-3.01,8.65-1.13,12.16,1.73,3.22,5.23,4.99,9.86,4.99,14.21,0,28.85-9.79,44.75-29.92,17.12-1.74,36.44-5.03,50.1-21.22,6.44-7.58,8.54-15.37,5.77-21.37-2.95-6.37-10.88-9.88-22.34-9.88h0Z"/>
  </g>
  <g>
    <path class="cls-7" d="M96.24,97.41c-5.23,0-7.1-2.42-7.76-4.45-2.24-6.96,6.14-20.47,17.92-28.91,7.84-5.61,13-6.79,15.94-6.79s4.92,1.14,5.74,3.2c1.31,3.3-.83,8.15-5.59,12.65-6.82,6.46-12.71,7.15-14.93,7.15s-4.09-.64-5.01-1.73c-1.76,3.61-2.21,6.57-1.22,8.2.62,1.02,1.82,1.54,3.57,1.54,7.4,0,17.01-7.1,28.56-21.12.1-.12.24-.18.39-.18.11,0,.22.04.31.11.21.17.25.49.08.7-5.53,6.95-9.12,11.39-11.33,13.98-.7.83-1.35,1.72-1.95,2.63-.02.03-.05.07-.08.09-9.27,8.46-17.79,12.93-24.64,12.93ZM104.52,75.16c.61.75,1.39,1.13,2.32,1.13,1.47,0,4.13-.98,8.4-5.66,4.34-4.74,5.72-8.42,5.28-9.42-.04-.08-.11-.25-.49-.25-.72,0-3.02.61-8.95,6.29-2.42,2.3-4.74,5.09-6.57,7.9Z"/>
    <path class="cls-10" d="M122.35,57.76c7.15,0,7.89,7.34-.2,14.98-5.49,5.2-10.84,7.02-14.58,7.02-2.71,0-4.57-.95-5.04-2.26-3.15,5.98-3.38,11.27,2.38,11.27,7.25,0,16.78-6.54,28.95-21.3-4.55,5.72-8.77,10.98-11.32,13.96-.75.9-1.41,1.8-1.99,2.68-9.43,8.61-17.81,12.8-24.3,12.8-15.24,0-5.47-21.05,10.46-32.45,6.67-4.78,12-6.7,15.65-6.7M106.84,76.79c1.88,0,4.67-1.34,8.77-5.82,4.98-5.44,6.87-10.51,4.42-10.51-1.46,0-4.47,1.81-9.29,6.43-2.57,2.44-5.01,5.43-6.83,8.28.54.78,1.45,1.61,2.93,1.61M133.85,67.47h0M122.35,56.76h0c-3.02,0-8.29,1.19-16.23,6.88-11.94,8.55-20.4,22.33-18.11,29.47.7,2.19,2.7,4.79,8.23,4.79,6.98,0,15.62-4.52,24.98-13.06.06-.06.12-.12.16-.19.59-.9,1.24-1.77,1.92-2.59,2.19-2.57,5.78-7,11.3-13.95.15-.18.25-.41.25-.66,0-.55-.44-1-.99-1,0,0,0,0,0,0-.01,0-.03,0-.04,0-.14,0-.27.04-.39.1-.12.06-.23.14-.32.24,0,0-.02.02-.03.03-11.45,13.89-20.92,20.93-28.17,20.93-1.56,0-2.62-.44-3.14-1.3-.83-1.37-.47-3.97.95-7.1,1.1.88,2.8,1.39,4.85,1.39,4.81,0,10.37-2.66,15.27-7.29,4.91-4.64,7.1-9.7,5.71-13.19-.89-2.23-3.15-3.51-6.21-3.51h0ZM105.15,75.11c1.78-2.67,3.99-5.31,6.28-7.49,6.11-5.86,8.24-6.16,8.6-6.16h0s.04,0,.05,0c.22.72-.94,4.16-5.21,8.83-4.15,4.54-6.66,5.49-8.03,5.49-.66,0-1.22-.22-1.69-.68h0Z"/>
  </g>
  <g>
    <path class="cls-4" d="M123.42,97.41c-3.44,0-4.95-1.47-5.62-2.71-1.38-2.57-.53-6.53,2.33-10.86.62-.94,1.3-1.86,2.02-2.72,2.2-2.58,5.79-7.01,11.31-13.96,2.67-3.35,5.45-6.87,8.06-10.18,1.8-2.28,3.52-4.45,5.08-6.42h-11.48c-.19,0-.36-.11-.45-.28-.08-.17-.06-.37.05-.53l2.07-2.72c.09-.12.24-.2.4-.2h12.27l2.73-3.35c.08-.1.2-.16.32-.18,3.65-.49,8.27-2.46,14.55-6.18.08-.05.17-.07.25-.07.14,0,.28.06.37.17.16.18.17.45.02.64l-6.93,8.97h17.1c.19,0,.36.11.45.28.08.17.06.37-.05.53l-2.07,2.72c-.09.12-.24.2-.4.2h-17.87l-24.32,31.99c-2.86,3.98-3.19,5.34-2.97,5.79.08.17.38.2.62.2,2.76,0,14.09-9.08,24.88-22.76.05-.06.11-.11.17-.14.32-.16.65-.24.95-.24.42,0,.78.17.96.46.11.17.26.55,0,1.11-.02.04-.04.07-.06.1-15.04,18.71-28.37,30.33-34.78,30.33Z"/>
    <path class="cls-10" d="M167.32,37.57l-7.55,9.78h18.12l-2.07,2.72h-18.12l-24.47,32.18c-2.63,3.67-4.39,6.79-1.95,6.79,3.31,0,15.1-10.05,25.27-22.95.26-.13.51-.19.73-.19.48,0,.77.3.52.86-14.3,17.79-27.91,30.15-34.39,30.15s-7.38-5.97-2.87-12.8c.58-.88,1.24-1.78,1.99-2.68,2.54-2.99,6.77-8.25,11.32-13.96,4.76-5.99,9.87-12.47,13.78-17.4h-12.51l2.07-2.72h12.51l2.88-3.53c4.04-.54,9.01-2.85,14.73-6.25M167.32,36.57c-.17,0-.35.05-.51.14-6.22,3.69-10.78,5.63-14.36,6.12-.25.03-.48.16-.64.36l-2.58,3.16h-12.04c-.31,0-.61.15-.79.39l-2.07,2.72c-.23.3-.27.71-.1,1.05.17.34.52.56.9.56h10.44c-1.36,1.72-2.84,3.58-4.37,5.52-2.64,3.33-5.44,6.88-8.13,10.26-5.53,6.95-9.11,11.38-11.29,13.94-.74.89-1.43,1.82-2.06,2.78-2.97,4.5-3.82,8.64-2.35,11.38.73,1.36,2.37,2.97,6.06,2.97,6.65,0,19.8-11.41,35.16-30.52.05-.06.09-.13.13-.21.36-.77.13-1.33-.04-1.59-.28-.44-.79-.7-1.39-.7-.38,0-.78.1-1.17.29-.14.07-.25.16-.35.28-10.32,13.09-21.79,22.57-24.49,22.57-.07,0-.13,0-.17,0,0-.38.35-1.6,2.93-5.2l24.15-31.77h17.62c.31,0,.61-.15.79-.39l2.07-2.72c.23-.3.27-.71.1-1.05-.17-.34-.52-.56-.9-.56h-16.08l6.31-8.17c.29-.38.28-.91-.04-1.27-.2-.22-.47-.34-.75-.34h0ZM167.32,38.57h0,0Z"/>
  </g>
  <g>
    <path class="cls-1" d="M181.78,102.98c-8.16,0-11.04-3.68-12.03-5.88-1.54-3.41-.62-7.77,2.34-11.11,2.77-3.09,6.64-5.01,10.11-5.01,3.16,0,5.26,1.61,5.35,4.11,0,.19-.09.37-.26.46-.08.04-.16.06-.24.06-.1,0-.2-.03-.28-.09-.85-.58-1.93-.89-3.13-.89-2.31,0-4.67,1.16-6.01,2.95-.91,1.29-1.18,2.61-.71,3.53.5.98,1.86,1.51,3.81,1.51,8.35,0,16.07-6.26,31.78-25.75l.39-.52c-1.98-.23-3.64-.34-5.2-.34-3.35,0-6.15.53-8.55,1.63-.07.03-.14.04-.21.04-.17,0-.33-.09-.43-.24-.13-.22-.08-.5.12-.65,5.98-4.72,12.07-6.86,19.72-6.9,14.85-16.76,29.37-26.58,43.22-29.23l-3.15-.88c-2.64-.7-8.14-1.89-15.33-1.89-8.53,0-20.53,1.7-29.2,9.78-6.51,5.96-10.32,12.1-10.19,16.43.05,1.59.63,2.84,1.72,3.72.15.12.22.32.17.51-.05.19-.2.33-.39.37-1.35.27-2.64.4-3.83.4-4.1,0-7.11-1.64-8.24-4.5-1.75-4.42,1.09-10.72,7.62-16.86,11.94-11.36,32.76-15.41,48.26-15.41,5.18,0,10.12.45,14.29,1.3,5.39,1.1,11.48,1.68,17.63,1.68,12.04,0,21.44-2.24,21.88-5.21.04-.25.25-.43.49-.43.02,0,.04,0,.07,0,3.14.42,5.33,2.68,5.56,5.76.27,3.54-2.17,8.46-9.92,10.7-2.55.72-5.2,1.08-8.1,1.08-7.49,0-15.68-2.49-22.92-4.7-11.69,2.99-23.63,12.29-36.49,28.41,1.87.2,4.14.39,6.46.39,5.65,0,10.5-1.13,15.26-3.56.07-.04.15-.05.23-.05.14,0,.28.06.38.18.15.18.16.43.02.62-5.28,7.11-11.9,10.42-20.85,10.42h0c-2.12,0-4.39-.17-7.12-.54l-.71.87c-16.33,22.69-30.52,33.73-43.37,33.73Z"/>
    <path class="cls-10" d="M303.3,20.18c7.2.95,7.79,11.95-4.44,15.48-2.6.74-5.26,1.06-7.96,1.06-7.22,0-14.83-2.25-22.91-4.72-12.4,3.12-24.81,13.31-37.46,29.33,2.44.27,4.91.49,7.41.49,4.92,0,10.02-.82,15.48-3.61-5.98,8.06-13.11,10.22-20.45,10.22-2.43,0-4.89-.24-7.33-.58l-.88,1.09c-15.54,21.59-29.89,33.54-42.98,33.54s-14.84-9.91-9.31-16.16c2.98-3.33,6.76-4.84,9.73-4.84,2.73,0,4.77,1.28,4.85,3.62-.96-.66-2.16-.98-3.41-.98-2.35,0-4.89,1.11-6.41,3.15-1.93,2.72-1.39,5.84,3.5,5.84,8.2,0,15.65-5.43,32.17-25.94l.93-1.22c-2.07-.27-4.12-.45-6.12-.45-3.09,0-6.04.44-8.76,1.67,6.88-5.43,13.31-6.79,19.63-6.79,15.12-17.11,30.34-27.57,45.3-29.6l-5.32-1.49c-4-1.07-9.48-1.91-15.47-1.91-10.02,0-21.43,2.35-29.54,9.92-9.94,9.1-12.64,17.52-8.44,20.91-1.34.27-2.59.39-3.73.39-9.88,0-11.93-9.54-.28-20.49,11.29-10.74,31.36-15.28,47.92-15.28,5.2,0,10.06.45,14.19,1.29,5.7,1.17,11.92,1.69,17.73,1.69,11.78,0,21.86-2.18,22.37-5.63M303.3,19.18c-.49,0-.91.36-.99.85-.34,2.3-8.61,4.78-21.38,4.78-6.11,0-12.17-.58-17.53-1.67-4.2-.86-9.17-1.31-14.39-1.31-15.6,0-36.56,4.09-48.6,15.55-6.67,6.28-9.57,12.78-7.73,17.4,1.21,3.06,4.39,4.82,8.71,4.82,1.23,0,2.55-.14,3.93-.41.38-.08.68-.36.78-.74.09-.38-.04-.77-.34-1.02-.97-.79-1.49-1.91-1.53-3.35-.13-4.19,3.62-10.18,10.02-16.05,8.56-7.98,20.42-9.65,28.86-9.65,7.14,0,12.59,1.17,15.21,1.87l1.2.34c-13.31,3.18-27.2,12.85-41.37,28.8-7.66.08-13.79,2.25-19.8,7-.4.31-.5.87-.23,1.31.19.31.51.48.85.48.14,0,.28-.03.41-.09,2.34-1.07,5.06-1.58,8.34-1.58,1.3,0,2.68.08,4.26.24-15.48,19.2-23.09,25.37-31.24,25.37-1.75,0-2.95-.44-3.36-1.24-.39-.75-.13-1.88.68-3.02,1.23-1.65,3.44-2.73,5.6-2.73,1.1,0,2.08.28,2.85.8.17.12.37.18.57.18.17,0,.33-.04.48-.12.33-.18.53-.54.52-.91-.1-2.79-2.4-4.59-5.85-4.59-3.66,0-7.58,1.94-10.48,5.18-3.09,3.49-4.04,8.06-2.42,11.65,1.04,2.31,4.04,6.18,12.48,6.18,13.02,0,27.34-11.1,43.77-33.93l.51-.63c2.63.35,4.84.51,6.91.51,9.12,0,15.88-3.37,21.26-10.62.28-.37.26-.89-.04-1.24-.2-.23-.48-.35-.76-.35-.15,0-.31.04-.45.11-4.68,2.39-9.46,3.5-15.03,3.5-1.93,0-3.83-.13-5.49-.29,12.52-15.53,24.15-24.53,35.51-27.49,7.24,2.21,15.42,4.69,22.93,4.69,2.95,0,5.65-.36,8.24-1.1,8.04-2.32,10.56-7.49,10.29-11.22-.25-3.33-2.6-5.77-5.99-6.22-.04,0-.09,0-.13,0h0Z"/>
  </g>
  <g>
    <path class="cls-2" d="M238.67,97.17c-.3,0-.6,0-.9-.03-2.31-.17-3.93-1.18-4.7-2.95-1.72-3.96,1.11-11.38,7.21-18.92,8.91-11,19.31-17.82,27.83-18.25h.33c2.68,0,4.62.83,5.62,2.41,1.25,1.99.99,4.96-.76,8.84.48.07.96.1,1.45.1,2.6,0,5.19-.95,7.3-2.68.09-.08.2-.11.32-.11s.22.04.31.11c.18.14.24.4.14.61-.28.6-.55,1.32-.81,2.21-.03.11-.1.21-.2.27-3.17,2.16-6.83,3.4-10.04,3.4-.17,0-.33,0-.49,0-1.2,2.07-2.68,4.29-4.42,6.58-8.42,11.02-19.75,18.42-28.19,18.42ZM267.26,60.61c-2.11,0-6.45,2.49-15.12,14.33-5.37,7.43-6.91,12.46-6.04,14.14.23.46.66.68,1.31.68,1.62,0,5.63-1.84,14.21-14.18,5.83-8.48,7.02-13.16,6.26-14.59-.14-.26-.33-.38-.62-.38Z"/>
    <path class="cls-10" d="M268.44,57.53c5.7,0,7.65,3.8,4.13,11.14.72.14,1.45.21,2.18.21,2.7,0,5.4-.97,7.62-2.79-.32.67-.59,1.44-.84,2.28-3.06,2.08-6.59,3.31-9.76,3.31-.26,0-.52,0-.77-.03-1.16,2.04-2.68,4.34-4.54,6.79-8.23,10.76-19.4,18.22-27.79,18.22-.29,0-.58,0-.87-.03-7.61-.54-5.59-10.59,2.87-21.05,9.13-11.27,19.3-17.65,27.47-18.06.1,0,.2,0,.3,0M247.4,90.26c2.73,0,7.54-4.21,14.63-14.39,7.65-11.14,7.39-15.75,5.24-15.75-3.02,0-7.96,4.21-15.53,14.53-6.67,9.23-8.07,15.62-4.33,15.62M282.36,66.09h0M268.44,56.53h0c-.11,0-.21,0-.32,0-8.69.43-19.23,7.32-28.22,18.43-6.31,7.8-9.1,15.24-7.28,19.43.59,1.36,1.95,3.02,5.11,3.25.31.02.62.03.94.03,8.58,0,20.07-7.48,28.58-18.62,1.68-2.22,3.13-4.36,4.3-6.37.07,0,.14,0,.21,0,3.3,0,7.07-1.27,10.32-3.49.19-.13.33-.32.4-.54.25-.84.5-1.52.76-2.08.08-.14.12-.31.12-.48,0-.55-.45-1-1-1h0s0,0-.01,0h0c-.24,0-.46.09-.63.23-2.02,1.65-4.5,2.56-6.98,2.56-.24,0-.48,0-.71-.03,1.57-3.74,1.73-6.66.45-8.68-.76-1.21-2.42-2.65-6.04-2.65h0ZM247.4,89.26c-.66,0-.8-.27-.86-.41-.77-1.5.79-6.4,6.01-13.62,8.55-11.67,12.72-14.12,14.72-14.12.1,0,.12.01.18.11.52.98-.12,5.18-6.24,14.08-8.77,12.6-12.57,13.96-13.8,13.96h0Z"/>
  </g>
  <g>
    <path class="cls-8" d="M270.65,97.41c-2.45,0-4.37-.88-5.56-2.54-1.42-1.98-1.62-4.91-.56-8.04,1.26-3.39,4.52-7.14,7.2-7.14.1,0,.21,0,.31.02.2.02.36.16.42.35s0,.4-.16.53c-3.23,2.72-3.85,5.24-3.35,6.69.38,1.1,1.4,1.75,2.8,1.8h.24c4.1,0,5.56-3.54,6-5.07.53-1.63.91-4.17,1.31-6.85.47-3.1.95-6.3,1.73-8.93.28-.93.56-1.7.87-2.35,0,0,0,0,0,0,1.55-3.39,4.87-6.16,8.46-7.06.04,0,.08-.01.12-.01h9.06c.23,0,.43.16.49.38.06.22-.05.46-.25.56-7.56,3.98-8.48,9.8-9.45,15.96-.46,2.88-.93,5.86-2.08,8.77-.39,1.08-.87,2.12-1.42,3.11,5.36-3.57,10.97-9.14,18.34-18.13.1-.12.24-.18.39-.18.11,0,.22.04.31.11.21.17.25.49.08.7-4.46,5.59-7.57,9.41-9.49,11.67-.89,1.07-1.7,2.2-2.42,3.36-.02.04-.05.07-.08.1-8.67,8.32-15.85,12.19-22.6,12.19h-.72Z"/>
    <path class="cls-10" d="M299.56,59.29c-11.35,5.97-8.15,15.89-11.77,24.99-.69,1.9-1.59,3.53-2.55,4.89,6.71-3.95,13.06-10.54,20.32-19.4-3.83,4.8-7.29,9.08-9.48,11.66-.97,1.16-1.78,2.31-2.46,3.43-7.84,7.52-15.11,12.05-22.25,12.05h-.72c-5.46,0-7.45-4.62-5.64-9.91,1.22-3.28,4.38-6.8,6.73-6.8.09,0,.17,0,.25.01-5.49,4.62-4.23,9.23-.24,9.37.09,0,.17,0,.26,0,3.82,0,5.75-2.91,6.48-5.44,1.12-3.48,1.57-10.83,3.04-15.78.25-.84.52-1.61.84-2.28,0,0,0,0,0,0,1.55-3.4,4.88-5.98,8.13-6.79h9.06M305.56,69.77h0M299.56,58.29h-9.06c-.08,0-.16.01-.24.03-3.74.93-7.19,3.82-8.8,7.35,0,0,0,0,0,0-.31.66-.6,1.45-.89,2.4-.79,2.66-1.3,6.03-1.75,9-.4,2.66-.78,5.18-1.29,6.76-.42,1.45-1.77,4.74-5.53,4.74-.07,0-.15,0-.22,0-1.18-.04-2.04-.57-2.35-1.46-.45-1.29.16-3.59,3.2-6.14.31-.26.43-.67.31-1.05s-.45-.66-.84-.71c-.12-.01-.24-.02-.37-.02-2.88,0-6.35,3.93-7.67,7.46-1.13,3.3-.9,6.4.61,8.51.9,1.25,2.66,2.75,5.96,2.75h.72c6.89,0,14.18-3.92,22.94-12.33.06-.06.12-.13.16-.2.7-1.14,1.5-2.25,2.37-3.31,1.92-2.26,5.02-6.07,9.47-11.64.16-.18.25-.41.25-.66,0-.55-.44-1-.99-1,0,0,0,0,0,0-.01,0-.03,0-.04,0-.14,0-.27.04-.39.1-.12.06-.23.14-.32.24-.01.01-.02.02-.03.04-6.6,8.05-11.78,13.34-16.62,16.9.21-.46.4-.94.57-1.42,1.17-2.93,1.64-5.94,2.1-8.85.99-6.29,1.85-11.73,9.19-15.59.41-.21.62-.68.5-1.12-.11-.45-.51-.76-.97-.76h0ZM299.56,60.29h0,0Z"/>
  </g>
  <g>
    <path class="cls-6" d="M296.96,97.41c-3.38,0-4.9-1.43-5.57-2.64-1.34-2.39-.68-6.1,1.8-10.18.74-1.21,1.58-2.38,2.5-3.49,1.92-2.26,5.02-6.07,9.47-11.65,3.25-4.07,6.76-8.52,10.02-12.64,1.75-2.22,3.43-4.34,4.95-6.26h-11.47c-.19,0-.36-.11-.45-.28-.08-.17-.06-.37.05-.53l2.07-2.72c.09-.12.24-.2.4-.2h12.27l2.73-3.35c.08-.1.2-.16.32-.18,3.65-.49,8.27-2.46,14.55-6.18.08-.05.17-.07.25-.07.14,0,.28.06.37.17.16.18.17.45.02.64l-6.93,8.97h17.1c.19,0,.36.11.45.28s.06.37-.05.53l-2.07,2.72c-.09.12-.24.2-.4.2h-17.87l-24.32,31.99c-2.86,3.98-3.19,5.34-2.96,5.79.08.17.38.2.62.2,1.54,0,6.08-2.88,12.75-9.31.1-.09.22-.14.35-.14.11,0,.22.04.31.11.2.16.25.44.11.65-1.04,1.7-1.88,3.37-2.51,4.96-.03.07-.06.12-.12.17-5.79,5.67-13.75,12.43-18.76,12.43Z"/>
    <path class="cls-10" d="M340.87,37.57l-7.55,9.78h18.12l-2.07,2.72h-18.12l-24.47,32.18c-2.63,3.67-4.39,6.79-1.95,6.79,2,0,7.11-3.69,13.09-9.45-1.05,1.72-1.91,3.42-2.55,5.04-7.82,7.66-14.45,12.29-18.41,12.29-6.5,0-7.32-5.54-3.34-12.05.68-1.12,1.49-2.27,2.46-3.43,2.2-2.58,5.65-6.86,9.48-11.66,5.24-6.58,11.2-14.14,15.62-19.71h-12.51l2.07-2.72h12.51l2.88-3.53c4.04-.54,9.01-2.85,14.73-6.25M317.92,79.58h0M340.87,36.57c-.17,0-.35.05-.51.14-6.22,3.69-10.78,5.63-14.36,6.12-.25.03-.48.16-.64.36l-2.58,3.16h-12.04c-.31,0-.61.15-.79.39l-2.07,2.72c-.23.3-.27.71-.1,1.05.17.34.52.56.9.56h10.44c-1.36,1.72-2.84,3.58-4.36,5.52-3.31,4.19-6.74,8.52-9.97,12.57-4.45,5.58-7.54,9.38-9.46,11.64-.95,1.14-1.81,2.33-2.55,3.56-2.58,4.24-3.25,8.13-1.81,10.68.74,1.32,2.38,2.89,6.01,2.89,5.18,0,13.25-6.84,19.11-12.57.1-.1.18-.22.23-.35.61-1.55,1.44-3.18,2.44-4.84.11-.16.18-.36.18-.57,0-.55-.45-1-1-1h0s-.01,0-.02,0h0s0,0,0,0c-.18,0-.35.05-.49.14,0,0,0,0,0,0,0,0,0,0,0,0-.06.04-.13.08-.18.14-6.98,6.73-11.24,9.17-12.4,9.17-.07,0-.13,0-.17,0,0-.38.35-1.6,2.93-5.2l24.15-31.77h17.62c.31,0,.61-.15.79-.39l2.07-2.72c.23-.3.27-.71.1-1.05-.17-.34-.52-.56-.9-.56h-16.08l6.31-8.17c.29-.38.28-.91-.04-1.27-.2-.22-.47-.34-.75-.34h0ZM340.87,38.57h0,0Z"/>
  </g>
  <g>
    <path class="cls-3" d="M350.02,97.41c-2.45,0-3.69-1.21-4.3-2.23-1.23-2.06-1.01-5.18.58-8.15,3.31-6.07,8.73-11.21,14.96-16.84,2.01-1.84,6.21-5.67,5.64-7.23-.16-.44-.86-.99-3.25-1.12-10.32,16.46-27.44,35.56-41.96,35.56-3.34,0-5.69-.97-7-2.89-1.56-2.29-1.49-5.78.21-10.08.65-1.65,1.52-3.37,2.59-5.12,3.44-5.63,8.67-11.2,14.36-15.27,7.84-5.61,12.99-6.79,15.94-6.79s4.92,1.14,5.74,3.2c1.31,3.3-.83,8.15-5.59,12.65-6.82,6.46-12.71,7.15-14.92,7.15s-4.09-.64-5.01-1.73c-1.76,3.61-2.21,6.57-1.22,8.2.62,1.02,1.81,1.54,3.57,1.54,10.39,0,22.09-14.37,30.22-26.7-.62-.18-1.12-.54-1.45-1.05-.68-1.05-.63-2.66.14-4.65,2-4.95,7.17-9.95,10.44-10.1h.21c1.2,0,2.01.38,2.39,1.15.56,1.1.62,3.46-4.97,11.17.88-.04,1.78-.09,2.67-.15,1.62-.1,3.14-.19,4.51-.19,2.74,0,4.14.39,4.69,1.3,1.05,1.61-1.29,5.5-6.11,10.13-6.12,5.87-11.51,12.04-13.41,15.37-1.17,2.01-1.43,3.4-1.18,3.85.03.05.09.16.38.16,3.83,0,14.99-10.21,24.88-22.76.05-.06.11-.11.17-.14.32-.16.65-.24.95-.24.42,0,.78.17.96.46.11.18.26.55,0,1.11-.02.04-.04.07-.06.1-16.87,20.98-27.9,30.33-35.78,30.33ZM329.97,75.16c.61.75,1.39,1.13,2.32,1.13,1.47,0,4.13-.98,8.4-5.66,4.34-4.74,5.72-8.42,5.28-9.42-.04-.08-.11-.25-.49-.25-.72,0-3.02.61-8.95,6.29-2.42,2.3-4.74,5.09-6.57,7.9Z"/>
    <path class="cls-10" d="M369.91,46.25c3.7,0,2.64,3.95-3.59,12.36,2.71-.07,5.77-.38,8.2-.38,2.12,0,3.76.23,4.26,1.06.8,1.22-1.08,4.75-6.03,9.5-5.95,5.7-11.48,11.95-13.5,15.48-1.42,2.44-1.94,4.75-.36,4.75,4.03,0,15.1-10.05,25.27-22.95.26-.13.51-.19.73-.19.48,0,.77.3.52.86-14.3,17.79-26.62,30.15-35.39,30.15-4.74,0-5.75-5.02-3.28-9.64,3.33-6.11,8.84-11.27,14.86-16.7,5.65-5.16,8.9-8.96,1.78-9.23-11.18,17.93-28.03,35.58-41.69,35.58-7.75,0-9.02-5.44-6.32-12.29.64-1.62,1.5-3.32,2.55-5.04,3.25-5.32,8.31-10.89,14.23-15.13,6.67-4.78,12-6.7,15.65-6.7,7.15,0,7.89,7.34-.2,14.98-5.49,5.2-10.84,7.02-14.58,7.02-2.71,0-4.57-.95-5.04-2.26-3.15,5.98-3.38,11.27,2.38,11.27,10.07,0,21.57-13.04,31.06-27.57-2.26-.13-2.83-2.17-1.68-5.16,1.98-4.89,7.08-9.64,9.99-9.78.06,0,.13,0,.19,0M332.29,76.79c1.88,0,4.67-1.34,8.77-5.82,4.98-5.44,6.87-10.51,4.42-10.51-1.46,0-4.47,1.81-9.29,6.43-2.57,2.44-5.01,5.43-6.83,8.28.54.78,1.45,1.61,2.93,1.61M369.91,45.25h0c-.07,0-.15,0-.22,0-3.44.16-8.83,5.31-10.88,10.4-.83,2.17-.86,3.93-.1,5.12.22.34.57.73,1.11,1.02-8.04,12.11-19.44,25.97-29.46,25.97-1.56,0-2.62-.44-3.14-1.3-.83-1.37-.47-3.97.95-7.1,1.1.88,2.8,1.39,4.85,1.39,4.81,0,10.37-2.66,15.27-7.29,4.91-4.64,7.1-9.7,5.72-13.19-.89-2.23-3.15-3.51-6.21-3.51-3.02,0-8.29,1.19-16.23,6.88-5.74,4.11-11.03,9.73-14.5,15.42-1.08,1.77-1.97,3.52-2.63,5.19-1.76,4.46-1.82,8.11-.16,10.54,1.4,2.06,3.9,3.11,7.41,3.11,9.41,0,19.85-7.84,28.87-17.82-1.83,2.15-3.42,4.36-4.7,6.7-1.68,3.13-1.9,6.44-.57,8.65.95,1.59,2.63,2.47,4.73,2.47,8.04,0,19.2-9.41,36.17-30.52.05-.06.09-.13.13-.21.36-.77.13-1.33-.04-1.59-.28-.44-.79-.7-1.39-.7-.38,0-.78.1-1.17.29-.14.07-.25.16-.35.28-10.61,13.46-21.19,22.51-24.46,22.57-.04-.38.18-1.51,1.19-3.25,1.88-3.29,7.24-9.43,13.33-15.26,2.44-2.34,7.94-8.08,6.18-10.77-.81-1.33-3.03-1.51-5.1-1.51-1.38,0-2.92.09-4.54.19-.54.03-1.09.07-1.63.1,5.08-7.18,5.05-9.57,4.41-10.85-.33-.65-1.09-1.43-2.84-1.43h0ZM330.6,75.11c1.78-2.67,3.99-5.31,6.28-7.49,6.11-5.86,8.24-6.16,8.6-6.16h0s.04,0,.05,0c.22.72-.94,4.16-5.21,8.83-4.15,4.54-6.66,5.49-8.03,5.49-.66,0-1.22-.22-1.69-.68h0ZM352.11,78.34c4.43-5.11,8.47-10.67,11.81-15.98,2.23.16,2.49.71,2.52.77.3.83-1.55,3.08-5.51,6.69-3.21,2.9-6.21,5.67-8.82,8.51h0Z"/>
  </g>
</svg>