<?xml version="1.0" encoding="UTF-8"?>
<svg id="Calque_1" data-name="Calque 1" xmlns="http://www.w3.org/2000/svg" xmlns:xlink="http://www.w3.org/1999/xlink" viewBox="0 0 141.73 141.73">
  <defs>
    <style>
      .cls-1 {
        fill: url(#Dégradé_sans_nom_26-2);
      }

      .cls-1, .cls-2, .cls-3, .cls-4, .cls-5, .cls-6, .cls-7 {
        stroke-width: 0px;
      }

      .cls-2 {
        fill: url(#Dégradé_sans_nom_26-3);
      }

      .cls-3 {
        fill: url(#Dégradé_sans_nom_26);
      }

      .cls-4 {
        fill: url(#Dégradé_sans_nom_26-4);
      }

      .cls-5 {
        fill: url(#Dégradé_sans_nom_26-5);
      }

      .cls-6 {
        fill: url(#Dégradé_sans_nom_91);
      }

      .cls-7 {
        fill: #fff;
      }
    </style>
    <linearGradient id="Dégradé_sans_nom_91" data-name="Dégradé sans nom 91" x1="1.08" y1="39.05" x2="140.65" y2="39.05" gradientUnits="userSpaceOnUse">
      <stop offset="0" stop-color="#179fb4"/>
      <stop offset=".93" stop-color="#96ceb4"/>
    </linearGradient>
    <linearGradient id="Dégradé_sans_nom_26" data-name="Dégradé sans nom 26" x1="60.48" y1="107.44" x2="121.1" y2="107.44" gradientUnits="userSpaceOnUse">
      <stop offset="0" stop-color="#ff6e60"/>
      <stop offset=".92" stop-color="#ffad60"/>
    </linearGradient>
    <linearGradient id="Dégradé_sans_nom_26-2" data-name="Dégradé sans nom 26" x1="60.89" y1="58.25" x2="89.21" y2="58.25" xlink:href="#Dégradé_sans_nom_26"/>
    <linearGradient id="Dégradé_sans_nom_26-3" data-name="Dégradé sans nom 26" x1="39.37" y1="82.55" x2="66.5" y2="82.55" xlink:href="#Dégradé_sans_nom_26"/>
    <linearGradient id="Dégradé_sans_nom_26-4" data-name="Dégradé sans nom 26" x1="91.52" y1="59.28" x2="114.83" y2="59.28" xlink:href="#Dégradé_sans_nom_26"/>
    <linearGradient id="Dégradé_sans_nom_26-5" data-name="Dégradé sans nom 26" x1="111.28" y1="80.33" x2="132.09" y2="80.33" xlink:href="#Dégradé_sans_nom_26"/>
  </defs>
  <path class="cls-7" d="M60.49,122.34c.01,3.3.6,5.52,2.12,8.49,3.66,7.17,11.41,9.61,18.43,5.69,1.44-.8,2.71-1.95,3.98-3.03,6.03-5.13,12.84-7.79,20.85-6.62,2.71.39,5.16-.24,7.4-1.71,8.25-5.39,10.42-17.9,4.34-25.82-4.22-5.5-8.61-10.88-13.08-16.18-5.63-6.66-14.29-8.41-22.27-4.85-6.68,2.99-10.69,8.31-13.09,14.94-2.37,6.55-4.49,13.19-6.69,19.8-1.06,3.18-2.14,6.36-2,9.3ZM60.89,57.73c.14,4.69,1.74,9.85,5.48,14.3,5.59,6.66,14.63,6.31,19.51-.87,2.97-4.37,3.76-9.27,3.12-14.39-.72-5.72-2.88-10.77-7.6-14.41-5.6-4.32-12.66-3.27-16.8,2.46-2.56,3.55-3.71,7.54-3.7,12.9ZM39.37,80.96c.09,5.71,2.17,10.56,6.54,14.29,6.76,5.78,15.78,3.69,19.27-4.4,3.39-7.85.04-18.16-7.32-22.51-5.17-3.06-11.31-2.09-15.02,2.39-2.45,2.96-3.4,6.43-3.46,10.23ZM114.81,57.31c.11-2.23-.87-4.92-2.11-7.53-1.06-2.24-2.57-4.15-4.77-5.39-4.49-2.54-9.57-1.23-12.83,3.23-2.36,3.23-3.42,6.91-3.56,10.85-.18,4.98.98,9.58,4.35,13.43,4,4.57,9.94,4.72,14.15.33,3.81-3.98,4.93-8.88,4.77-14.93ZM111.28,81.72c-.05,2.53.48,4.93,1.53,7.2,2.97,6.43,9.48,7.63,14.55,2.67,2.67-2.62,3.9-5.95,4.45-9.58.58-3.87.38-7.62-1.58-11.14-3.02-5.44-9.02-6.49-13.57-2.27-3.8,3.52-5.21,8.08-5.37,13.11Z"/>
  <path class="cls-6" d="M1.08,63.52c.61-3.24,1.84-6.14,4.54-8.23,1.01-.78,1.96-1.64,2.93-2.46,16.47-13.77,32.95-27.54,49.42-41.31,2.99-2.5,5.99-5,8.98-7.51,2.72-2.29,5.68-2.71,8.9-1.16,11.96,5.74,23.91,11.48,35.86,17.22,7.75,3.72,15.5,7.47,23.27,11.14,3.37,1.59,5.02,4.34,5.51,7.84.44,3.15-.07,6.14-2.38,8.57-1.85,1.95-4.18,2.48-6.66,1.4-5.91-2.57-11.8-5.19-17.7-7.8-9.46-4.18-18.92-8.37-28.38-12.55-3.09-1.37-6.19-2.72-9.26-4.15-.71-.33-1.14-.22-1.69.27-17.72,15.7-35.46,31.39-53.18,47.09-1.76,1.56-3.45,3.21-5.81,3.87-6.47,1.83-12.92-2.37-14.09-9.18-.07-.38-.18-.76-.27-1.14,0-.64,0-1.28,0-1.92Z"/>
  <g>
    <path class="cls-3" d="M60.49,122.34c-.14-2.94.94-6.12,2-9.3,2.2-6.61,4.32-13.25,6.69-19.8,2.4-6.63,6.41-11.96,13.09-14.94,7.98-3.56,16.64-1.81,22.27,4.85,4.48,5.3,8.86,10.68,13.08,16.18,6.08,7.92,3.9,20.43-4.34,25.82-2.24,1.47-4.69,2.1-7.4,1.71-8.01-1.17-14.82,1.49-20.85,6.62-1.27,1.08-2.54,2.23-3.98,3.03-7.03,3.92-14.77,1.48-18.43-5.69-1.52-2.97-2.1-5.19-2.12-8.49Z"/>
    <path class="cls-1" d="M60.89,57.73c0-5.36,1.14-9.36,3.7-12.9,4.14-5.73,11.2-6.77,16.8-2.46,4.72,3.64,6.89,8.68,7.6,14.41.64,5.13-.15,10.03-3.12,14.39-4.88,7.17-13.92,7.53-19.51.87-3.74-4.45-5.34-9.61-5.48-14.3Z"/>
    <path class="cls-2" d="M39.37,80.96c.06-3.8,1.02-7.27,3.46-10.23,3.71-4.49,9.85-5.45,15.02-2.39,7.36,4.35,10.71,14.66,7.32,22.51-3.49,8.09-12.51,10.18-19.27,4.4-4.37-3.73-6.44-8.58-6.54-14.29Z"/>
    <path class="cls-4" d="M114.81,57.31c.16,6.04-.96,10.95-4.77,14.93-4.21,4.39-10.15,4.25-14.15-.33-3.37-3.85-4.52-8.45-4.35-13.43.14-3.94,1.2-7.62,3.56-10.85,3.27-4.47,8.34-5.77,12.83-3.23,2.19,1.24,3.7,3.15,4.77,5.39,1.24,2.6,2.22,5.29,2.11,7.53Z"/>
    <path class="cls-5" d="M111.28,81.72c.16-5.04,1.57-9.59,5.37-13.11,4.55-4.22,10.55-3.17,13.57,2.27,1.95,3.52,2.16,7.26,1.58,11.14-.55,3.63-1.78,6.96-4.45,9.58-5.06,4.97-11.58,3.76-14.55-2.67-1.05-2.27-1.58-4.68-1.53-7.2Z"/>
  </g>
</svg>